<svg width="151" height="69" viewBox="0 0 151 69" fill="none" xmlns="http://www.w3.org/2000/svg">
<path d="M19.455 33.495C13.245 33.495 10.14 30.48 10.14 24.45V15.99H5.955V10.905H10.14V4.425H16.935V10.905H23.46V15.99H16.935V24.18C16.935 25.44 17.22 26.385 17.79 27.015C18.39 27.645 19.335 27.96 20.625 27.96C21.015 27.96 21.42 27.915 21.84 27.825C22.29 27.735 22.77 27.615 23.28 27.465L24.27 32.415C23.64 32.745 22.89 33 22.02 33.18C21.15 33.39 20.295 33.495 19.455 33.495ZM26.8034 33V10.905H33.4634V14.73C34.5134 12.15 36.7634 10.725 40.2134 10.455L42.1934 10.32L42.5984 16.035L38.7734 16.44C35.4134 16.77 33.7334 18.48 33.7334 21.57V33H26.8034ZM45.0783 6.63V0.284997H52.4133V6.63H45.0783ZM45.3483 33V10.905H52.1433V33H45.3483ZM57.3893 41.1V10.905H64.0493V14.19C64.6493 13.05 65.5643 12.15 66.7943 11.49C68.0543 10.8 69.4643 10.455 71.0243 10.455C72.9443 10.455 74.6243 10.92 76.0643 11.85C77.5343 12.78 78.6743 14.1 79.4843 15.81C80.2943 17.52 80.6993 19.56 80.6993 21.93C80.6993 24.3 80.2943 26.355 79.4843 28.095C78.6743 29.805 77.5343 31.14 76.0643 32.1C74.6243 33.03 72.9443 33.495 71.0243 33.495C69.5543 33.495 68.2043 33.18 66.9743 32.55C65.7743 31.92 64.8443 31.08 64.1843 30.03V41.1H57.3893ZM68.9993 28.41C70.4393 28.41 71.6093 27.885 72.5093 26.835C73.4093 25.785 73.8593 24.15 73.8593 21.93C73.8593 19.74 73.4093 18.135 72.5093 17.115C71.6093 16.065 70.4393 15.54 68.9993 15.54C67.5293 15.54 66.3443 16.065 65.4443 17.115C64.5443 18.135 64.0943 19.74 64.0943 21.93C64.0943 24.15 64.5443 25.785 65.4443 26.835C66.3443 27.885 67.5293 28.41 68.9993 28.41ZM93.0901 33.495C90.2401 33.495 88.1551 32.76 86.8351 31.29C85.5151 29.79 84.8551 27.57 84.8551 24.63V1.275H91.6501V24.36C91.6501 26.76 92.7151 27.96 94.8451 27.96C95.1751 27.96 95.4901 27.945 95.7901 27.915C96.1201 27.885 96.4351 27.825 96.7351 27.735L96.6451 33C95.5051 33.33 94.3201 33.495 93.0901 33.495ZM111.096 33.495C108.486 33.495 106.236 33.03 104.346 32.1C102.486 31.14 101.046 29.805 100.026 28.095C99.0357 26.355 98.5407 24.315 98.5407 21.975C98.5407 19.695 99.0207 17.7 99.9807 15.99C100.971 14.25 102.306 12.9 103.986 11.94C105.696 10.95 107.661 10.455 109.881 10.455C113.091 10.455 115.641 11.475 117.531 13.515C119.421 15.525 120.366 18.255 120.366 21.705V23.415H105.021C105.261 25.155 105.891 26.43 106.911 27.24C107.961 28.02 109.401 28.41 111.231 28.41C112.431 28.41 113.646 28.23 114.876 27.87C116.106 27.51 117.216 26.955 118.206 26.205L120.006 30.75C118.896 31.59 117.531 32.265 115.911 32.775C114.321 33.255 112.716 33.495 111.096 33.495ZM110.151 14.955C108.711 14.955 107.541 15.39 106.641 16.26C105.771 17.13 105.231 18.345 105.021 19.905H114.741C114.561 16.605 113.031 14.955 110.151 14.955Z" fill="white"/>
<path d="M10.08 68.495C8.43 68.495 6.975 68.18 5.715 67.55C4.455 66.92 3.45 66.065 2.7 64.985C1.98 63.905 1.62 62.69 1.62 61.34C1.62 59.75 2.04 58.475 2.88 57.515C3.72 56.555 5.085 55.88 6.975 55.49C8.865 55.07 11.37 54.86 14.49 54.86H16.11V54.095C16.11 52.775 15.81 51.845 15.21 51.305C14.61 50.735 13.59 50.45 12.15 50.45C10.95 50.45 9.675 50.645 8.325 51.035C7.005 51.395 5.685 51.95 4.365 52.7L2.52 48.155C3.3 47.645 4.245 47.18 5.355 46.76C6.495 46.34 7.68 46.025 8.91 45.815C10.14 45.575 11.31 45.455 12.42 45.455C15.84 45.455 18.39 46.235 20.07 47.795C21.75 49.325 22.59 51.71 22.59 54.95V68H16.245V64.67C15.795 65.84 15.03 66.77 13.95 67.46C12.9 68.15 11.61 68.495 10.08 68.495ZM11.61 63.95C12.87 63.95 13.935 63.515 14.805 62.645C15.675 61.775 16.11 60.65 16.11 59.27V58.37H14.535C12.225 58.37 10.59 58.58 9.63 59C8.67 59.39 8.19 60.08 8.19 61.07C8.19 61.91 8.475 62.6 9.045 63.14C9.645 63.68 10.5 63.95 11.61 63.95ZM35.8938 68.495C33.0438 68.495 30.9588 67.76 29.6388 66.29C28.3188 64.79 27.6588 62.57 27.6588 59.63V36.275H34.4538V59.36C34.4538 61.76 35.5188 62.96 37.6488 62.96C37.9788 62.96 38.2938 62.945 38.5938 62.915C38.9238 62.885 39.2388 62.825 39.5388 62.735L39.4488 68C38.3088 68.33 37.1238 68.495 35.8938 68.495ZM42.3742 41.63V35.285H49.7092V41.63H42.3742ZM42.6442 68V45.905H49.4392V68H42.6442ZM62.1552 68.495C60.5052 68.495 59.0502 68.18 57.7902 67.55C56.5302 66.92 55.5252 66.065 54.7752 64.985C54.0552 63.905 53.6952 62.69 53.6952 61.34C53.6952 59.75 54.1152 58.475 54.9552 57.515C55.7952 56.555 57.1602 55.88 59.0502 55.49C60.9402 55.07 63.4452 54.86 66.5652 54.86H68.1852V54.095C68.1852 52.775 67.8852 51.845 67.2852 51.305C66.6852 50.735 65.6652 50.45 64.2252 50.45C63.0252 50.45 61.7502 50.645 60.4002 51.035C59.0802 51.395 57.7602 51.95 56.4402 52.7L54.5952 48.155C55.3752 47.645 56.3202 47.18 57.4302 46.76C58.5702 46.34 59.7552 46.025 60.9852 45.815C62.2152 45.575 63.3852 45.455 64.4952 45.455C67.9152 45.455 70.4652 46.235 72.1452 47.795C73.8252 49.325 74.6652 51.71 74.6652 54.95V68H68.3202V64.67C67.8702 65.84 67.1052 66.77 66.0252 67.46C64.9752 68.15 63.6852 68.495 62.1552 68.495ZM63.6852 63.95C64.9452 63.95 66.0102 63.515 66.8802 62.645C67.7502 61.775 68.1852 60.65 68.1852 59.27V58.37H66.6102C64.3002 58.37 62.6652 58.58 61.7052 59C60.7452 59.39 60.2652 60.08 60.2652 61.07C60.2652 61.91 60.5502 62.6 61.1202 63.14C61.7202 63.68 62.5752 63.95 63.6852 63.95ZM79.734 68V45.905H86.394V49.145C87.144 47.945 88.149 47.03 89.409 46.4C90.669 45.77 92.079 45.455 93.639 45.455C96.249 45.455 98.199 46.22 99.489 47.75C100.779 49.25 101.424 51.575 101.424 54.725V68H94.629V55.04C94.629 53.51 94.344 52.415 93.774 51.755C93.204 51.065 92.364 50.72 91.254 50.72C89.814 50.72 88.659 51.17 87.789 52.07C86.949 52.97 86.529 54.17 86.529 55.67V68H79.734ZM105.957 68V63.635L116.577 50.99H105.957V45.905H123.912V50.27L113.292 62.96H124.407V68H105.957ZM135.368 68.495C133.718 68.495 132.263 68.18 131.003 67.55C129.743 66.92 128.738 66.065 127.988 64.985C127.268 63.905 126.908 62.69 126.908 61.34C126.908 59.75 127.328 58.475 128.168 57.515C129.008 56.555 130.373 55.88 132.263 55.49C134.153 55.07 136.658 54.86 139.778 54.86H141.398V54.095C141.398 52.775 141.098 51.845 140.498 51.305C139.898 50.735 138.878 50.45 137.438 50.45C136.238 50.45 134.963 50.645 133.613 51.035C132.293 51.395 130.973 51.95 129.653 52.7L127.808 48.155C128.588 47.645 129.533 47.18 130.643 46.76C131.783 46.34 132.968 46.025 134.198 45.815C135.428 45.575 136.598 45.455 137.708 45.455C141.128 45.455 143.678 46.235 145.358 47.795C147.038 49.325 147.878 51.71 147.878 54.95V68H141.533V64.67C141.083 65.84 140.318 66.77 139.238 67.46C138.188 68.15 136.898 68.495 135.368 68.495ZM136.898 63.95C138.158 63.95 139.223 63.515 140.093 62.645C140.963 61.775 141.398 60.65 141.398 59.27V58.37H139.823C137.513 58.37 135.878 58.58 134.918 59C133.958 59.39 133.478 60.08 133.478 61.07C133.478 61.91 133.763 62.6 134.333 63.14C134.933 63.68 135.788 63.95 136.898 63.95Z" fill="white"/>
</svg>
